<?xml version="1.0" encoding="UTF-8"?>
<svg width="128px" height="128px" viewBox="0 0 128 128" version="1.1" xmlns="http://www.w3.org/2000/svg" xmlns:xlink="http://www.w3.org/1999/xlink">
    <!-- Generator: Sketch 61 (89581) - https://sketch.com -->
    <title>icon</title>
    <desc>Created with Sketch.</desc>
    <defs>
        <path d="M52.3264426,32.9681361 C79.9343027,32.9681361 99.9769053,34.4611829 99.9769053,22.2002973 C99.9769053,9.93941165 77.5963127,0 49.9884527,0 C22.3805926,0 0,16.4931229 0,22.2002973 C0,27.9074717 24.7185826,32.9681361 52.3264426,32.9681361 Z" id="path-1"></path>
    </defs>
    <g id="icon" stroke="none" stroke-width="1" fill="none" fill-rule="evenodd">
        <g id="椭圆形-+-椭圆形-蒙版" transform="translate(14.000000, 47.000000)">
            <mask id="mask-2" fill="white">
                <use xlink:href="#path-1"></use>
            </mask>
            <path stroke="#D8CA9E" stroke-width="0.5" d="M52.3264426,32.7181361 C54.5939898,32.7181361 56.5005423,32.7259261 60.2089241,32.7467741 C77.033522,32.8413596 82.9698757,32.6668799 88.8429691,31.5499869 C96.2162817,30.1477954 99.7269053,27.2939925 99.7269053,22.2002973 C99.7269053,10.1329404 77.4734692,0.25 49.9884527,0.25 C37.5183175,0.25 25.1216622,3.63992203 14.7591549,9.18042417 C6.24274853,13.733875 0.25,19.2984059 0.25,22.2002973 C0.25,27.659944 24.8706813,32.7181361 52.3264426,32.7181361 Z"></path>
            <circle id="椭圆形" fill="#41A863" mask="url(#mask-2)" cx="60.0461894" cy="16.3972286" r="23.0946882"></circle>
            <circle id="椭圆形" fill="#D8CA9E" mask="url(#mask-2)" cx="60.0461894" cy="16.6281755" r="12.7020785"></circle>
            <ellipse id="椭圆形" fill="#FFFFFF" mask="url(#mask-2)" cx="53.2332564" cy="9.93071594" rx="5.8891455" ry="6.00461894"></ellipse>
        </g>
    </g>
</svg>